HIERARCHY
ROOT Hips
{
    OFFSET 0.000000 0.000000 0.000000
    CHANNELS 6 Xposition Yposition Zposition Zrotation Xrotation Yrotation
    JOINT Spine
    {
        OFFSET -0.000000 0.068295 0.000000
        CHANNELS 3 Zrotation Xrotation Yrotation
        JOINT Spine1
        {
            OFFSET -0.000000 0.198479 0.000000
            CHANNELS 3 Zrotation Xrotation Yrotation
            JOINT Neck
            {
                OFFSET -0.000000 0.215136 0.000000
                CHANNELS 3 Zrotation Xrotation Yrotation
                JOINT Head
                {
                    OFFSET -0.000000 0.090366 0.016657
                    CHANNELS 3 Zrotation Xrotation Yrotation
                    End Site
                    {
                        OFFSET -0.000000 0.166573 0.000000
                    }
                }
            }
            JOINT LeftShoulder
            {
                OFFSET 0.033522 0.175145 -0.001055
                CHANNELS 3 Zrotation Xrotation Yrotation
                JOINT LeftArm
                {
                    OFFSET 0.121214 0.000000 0.000000
                    CHANNELS 3 Zrotation Xrotation Yrotation
                    JOINT LeftForeArm
                    {
                        OFFSET 0.261115 0.000000 0.000000
                        CHANNELS 3 Zrotation Xrotation Yrotation
                        JOINT LeftHand
                        {
                            OFFSET 0.230096 0.000000 0.000000
                            CHANNELS 3 Zrotation Xrotation Yrotation
                            End Site
                            {
                                OFFSET 0.000000 -0.124930 0.000000
                            }
                        }
                    }
                }
            }
            JOINT RightShoulder
            {
                OFFSET -0.033103 0.175145 -0.001055
                CHANNELS 3 Zrotation Xrotation Yrotation
                JOINT RightArm
                {
                    OFFSET -0.121214 0.000000 0.000000
                    CHANNELS 3 Zrotation Xrotation Yrotation
                    JOINT RightForeArm
                    {
                        OFFSET -0.261115 0.000000 0.000000
                        CHANNELS 3 Zrotation Xrotation Yrotation
                        JOINT RightHand
                        {
                            OFFSET -0.230096 0.000000 0.000000
                            CHANNELS 3 Zrotation Xrotation Yrotation
                            End Site
                            {
                                OFFSET -0.000000 -0.124930 0.000000
                            }
                        }
                    }
                }
            }
        }
    }
    JOINT LeftUpLeg
    {
        OFFSET 0.083287 0.000000 0.000000
        CHANNELS 3 Zrotation Xrotation Yrotation
        JOINT LeftLeg
        {
            OFFSET -0.000000 -0.281128 0.000000
            CHANNELS 3 Zrotation Xrotation Yrotation
            JOINT LeftFoot
            {
                OFFSET -0.000000 -0.491911 0.000000
                CHANNELS 3 Zrotation Xrotation Yrotation
                JOINT LeftToeBase
                {
                    OFFSET -0.000000 -0.054136 0.124930
                    CHANNELS 3 Zrotation Xrotation Yrotation
                    End Site
                    {
                        OFFSET -0.000000 0.000000 0.033315
                    }
                }
            }
        }
    }
    JOINT RightUpLeg
    {
        OFFSET -0.083287 0.000000 0.000000
        CHANNELS 3 Zrotation Xrotation Yrotation
        JOINT RightLeg
        {
            OFFSET -0.000000 -0.281128 0.000000
            CHANNELS 3 Zrotation Xrotation Yrotation
            JOINT RightFoot
            {
                OFFSET -0.000000 -0.491911 0.000000
                CHANNELS 3 Zrotation Xrotation Yrotation
                JOINT RightToeBase
                {
                    OFFSET -0.000000 -0.054136 0.124930
                    CHANNELS 3 Zrotation Xrotation Yrotation
                    End Site
                    {
                        OFFSET -0.000000 0.000000 0.033315
                    }
                }
            }
        }
    }
}
MOTION
Frames:    4
Frame Time:    0.010000
-0.243812    0.801443    0.336069    -7.674049    -7.004205    -57.974903    -7.965321    4.789025    -7.108902    6.296277    19.109259    -3.536189    -2.408595    -11.670852    7.669643    1.923477    -4.381589    7.684607    -3.284718    5.112807    -3.352754    -50.440533    40.004383    -26.456915    12.928596    -9.658965    -19.821674    108.431786    -4.546791    8.153562    0.723489    6.804480    4.971038    62.693985    40.613052    13.739750    -0.316509    -3.389971    9.414096    -99.173752    -7.932190    -4.001249    -10.943288    15.748584    0.515628    -1.247133    6.864379    0.546759    9.851557    -19.204535    44.635384    0.000000    0.000000    0.000000    -0.781751    -7.490540    -4.520347    1.200170    16.111322    -0.901296    -5.873425    -44.005943    -27.234016    0.000000    0.000000    0.000000    
-0.247636    0.801042    0.339746    -7.529753    -7.046323    -57.637653    -8.113700    4.677517    -7.319762    6.484964    19.110153    -3.637878    -2.516012    -11.721247    7.622171    1.908014    -4.272368    7.633235    -3.469393    5.141778    -3.235399    -50.261593    40.026913    -26.675919    12.737155    -9.514281    -19.700991    108.418159    -4.586593    8.061317    0.632444    6.907081    4.877362    62.767616    40.375301    13.738225    -0.152730    -3.219203    9.413107    -98.904388    -7.813693    -3.815876    -11.190622    16.093132    0.621339    -1.028889    6.811409    0.529444    9.912510    -18.993542    44.767151    0.000000    0.000000    0.000000    -0.047987    -7.559400    -4.358159    1.578990    13.970311    -0.831176    -5.873425    -44.005943    -27.234016    0.000000    0.000000    0.000000    
-0.251360    0.800495    0.343320    -7.348324    -7.069164    -57.237057    -8.181149    4.526575    -7.509926    6.543817    19.086794    -3.707244    -2.560562    -11.694844    7.539465    1.917894    -4.214562    7.544008    -3.556362    5.131438    -3.264921    -50.261688    39.941059    -26.680258    12.060579    -9.602171    -19.644341    103.663239    -4.204788    8.033706    0.537793    6.809099    4.900202    63.248375    40.461891    13.413157    -0.277495    -3.252101    9.187266    -98.908615    -7.779072    -3.836666    -11.206778    16.835592    0.162328    -0.837537    6.607340    0.507128    10.623580    -17.310575    44.022366    0.000000    0.000000    0.000000    -1.083785    -13.910054    -5.002765    11.151538    52.657700    -10.414463    -5.873425    -44.005943    -27.234016    0.000000    0.000000    0.000000    
-0.255279    0.799913    0.346827    -7.187060    -7.085104    -56.934296    -8.247960    4.373673    -7.618094    6.567053    19.066801    -3.743339    -2.569600    -11.670296    7.419972    1.918983    -4.159709    7.418625    -3.573674    5.116695    -3.314496    -50.108810    40.378994    -26.911118    12.580076    -9.899326    -19.539354    107.031471    -5.575990    8.585723    0.500414    6.654849    4.884082    63.753262    40.356407    12.984830    -0.304097    -3.209749    9.083016    -98.616020    -7.722171    -3.768151    -11.365191    17.266949    0.187515    -0.659007    6.401852    0.486941    10.546453    -17.548912    43.601528    0.000000    0.000000    0.000000    -0.820374    -14.515475    -4.840269    10.803187    53.840603    -10.003599    -5.873425    -44.005943    -27.234016    0.000000    0.000000    0.000000    
